# xmcd CD database file
#
# Track frame offsets:
#	150
#	14890
#	29282
#	43810
#	57810
#	72477
#	87397
#	102362
#	115205
#	129232
#	142265
#	155677
#	168672
#	191440
#	209030
#	222070
#	236752
#	253590
#	276490
#	306982
#	321010
#
# Disc length: 4669 seconds
#
# Revision: 4
# Processed by: cddbd v1.5.2PL0 Copyright (c) Steve Scherf et al.
# Submitted via: CDex 1.51
#
DISCID=4c123b15
DTITLE=Louis Armstrong - The Ultimate Collection Disc Two
DYEAR=2000
DGENRE=Jazz
TTITLE0=Rockin' Chair
TTITLE1=West End Blues
TTITLE2=Savoy Blues
TTITLE3=Hear Me Talkin' to Ya
TTITLE4=I'm Confessin'
TTITLE5=You're a Lucky Guy
TTITLE6=Wolverine Blues
TTITLE7=Sweethearts on Parade
TTITLE8=Perdido Street Blues
TTITLE9=2:19 Blues
TTITLE10=Coal Cart Blues
TTITLE11=Groovin'
TTITLE12=Royal Garden Blues
TTITLE13=Mahogany Hall Stomp
TTITLE14=Blueberry Hill
TTITLE15=You Can't Lose a Broken Heart
TTITLE16=My Bucket's Got a Hole in It
TTITLE17=Panama
TTITLE18=New Orleans Function Flee as a Bird - Oh, Didn't He Ramble
TTITLE19=You Rascal, You
TTITLE20=My Monday Date
EXTD=YEAR: 2000
EXTT0=
EXTT1=
EXTT2=
EXTT3=
EXTT4=
EXTT5=
EXTT6=
EXTT7=
EXTT8=
EXTT9=
EXTT10=
EXTT11=
EXTT12=
EXTT13=
EXTT14=
EXTT15=
EXTT16=
EXTT17=
EXTT18=
EXTT19=
EXTT20=
PLAYORDER=
